<svg xmlns="http://www.w3.org/2000/svg" width="15.168" height="15.168" viewBox="0 0 15.168 15.168"><defs><style>.a{fill:#4a4644;}</style></defs><path class="a" d="M14.576,10.428a.592.592,0,0,0,.593-.593V2.37A2.373,2.373,0,0,0,12.8,0H2.37A2.373,2.373,0,0,0,0,2.37V12.8a2.373,2.373,0,0,0,2.37,2.37H12.8a2.373,2.373,0,0,0,2.37-2.37.593.593,0,0,0-1.185,0A1.186,1.186,0,0,1,12.8,13.983h-2.9V9.658h1.371a.593.593,0,0,0,.588-.522l.078-.652a.593.593,0,0,0-.588-.663H9.895V5.836a.889.889,0,0,1,.889-.889h.741a.592.592,0,0,0,.593-.593v-.6a.592.592,0,0,0-.531-.589c-.3-.031-.618-.056-.8-.056a2.743,2.743,0,0,0-1.9.8,2.7,2.7,0,0,0-.825,1.931v1.98H6.725a.592.592,0,0,0-.593.593v.652a.592.592,0,0,0,.593.593H8.058v4.325H2.37A1.186,1.186,0,0,1,1.185,12.8V2.37A1.186,1.186,0,0,1,2.37,1.185H12.8A1.186,1.186,0,0,1,13.983,2.37V9.836A.592.592,0,0,0,14.576,10.428Zm0,0"/></svg>