<svg xmlns="http://www.w3.org/2000/svg" width="17.923" height="17.922" viewBox="0 0 17.923 17.922"><defs><style>.a{fill:rgba(41,45,46,0.6);stroke:#e5ebec;}</style></defs><g transform="translate(0.5 17.309) rotate(-90)"><g transform="translate(0 0)"><g transform="translate(0 0)"><path class="a" d="M16.4,9.4,9.4,16.394a1.412,1.412,0,1,1-2-2L13.4,8.4,7.406,2.411a1.412,1.412,0,0,1,2-2L16.4,7.406A1.411,1.411,0,0,1,16.4,9.4Zm-8.407.423L2.437,15.676a1.377,1.377,0,0,1-2.019,0,1.562,1.562,0,0,1,0-2.127L4.96,8.761.418,3.974a1.562,1.562,0,0,1,0-2.127,1.377,1.377,0,0,1,2.019,0L7.988,7.7A1.562,1.562,0,0,1,7.988,9.825Z" transform="translate(0 0)"/></g></g></g></svg>