<svg xmlns="http://www.w3.org/2000/svg" width="31.159" height="42.329" viewBox="0 0 31.159 42.329"><defs><style>.a{fill:#e5ebec;}</style></defs><g transform="translate(25.977)"><path class="a" d="M1128.978,159l-.188-.829c.5-.1.748-.485.748-1.151a1.132,1.132,0,0,0-.19-.7.59.59,0,0,0-.478-.245.706.706,0,0,0-.38.111.79.79,0,0,0-.274.476l-.251.91a2.138,2.138,0,0,1-.294.689,1.163,1.163,0,0,1-.464.359,1.563,1.563,0,0,1-.635.132,1.367,1.367,0,0,1-1.082-.473,1.8,1.8,0,0,1-.406-1.213,2.093,2.093,0,0,1,.285-1.092,1.257,1.257,0,0,1,.8-.616l.212.816a.82.82,0,0,0-.572.875.924.924,0,0,0,.177.61.568.568,0,0,0,.45.211c.286,0,.492-.219.605-.661l.215-.806a1.627,1.627,0,0,1,.574-.985,1.493,1.493,0,0,1,.842-.251,1.414,1.414,0,0,1,1.167.527,2.119,2.119,0,0,1,.424,1.367,2.406,2.406,0,0,1-.311,1.237A1.516,1.516,0,0,1,1128.978,159Z" transform="translate(-1125.084 -116.674)"/><path class="a" d="M1130.238,146.584v.922h-4.252v1.263h-.775v-3.448h.775v1.263Z" transform="translate(-1125.132 -112.944)"/><path class="a" d="M1130.238,134.549v.9l-2.065.738v1.2h2.065v.854h-5.027v-2.059a1.7,1.7,0,0,1,.41-1.263,1.451,1.451,0,0,1,1.062-.4,1.328,1.328,0,0,1,1.333.854Zm-2.793,2.846V136.33a1.008,1.008,0,0,0-.2-.688.729.729,0,0,0-.569-.227.694.694,0,0,0-.536.221.888.888,0,0,0-.207.623V137.4Z" transform="translate(-1125.132 -108.855)"/><path class="a" d="M1130.238,123.191v.916l-1.2.381v1.827l1.2.374v.73l-5.027-1.578v-1.053Zm-1.922,1.526-2.244.692,2.244.692Z" transform="translate(-1125.132 -104.564)"/><path class="a" d="M1130.238,115.5v.916h-4.252v1.267h-.775V114.23h.775V115.5Z" transform="translate(-1125.132 -101.171)"/><path class="a" d="M1130.266,105.533a1.708,1.708,0,0,1-.747,1.476,3.17,3.17,0,0,1-1.858.527,2.959,2.959,0,0,1-1.837-.559,1.767,1.767,0,0,1-.74-1.48,1.711,1.711,0,0,1,.74-1.463,3.031,3.031,0,0,1,1.845-.537,2.976,2.976,0,0,1,1.883.557A1.79,1.79,0,0,1,1130.266,105.533Zm-.728,0a.962.962,0,0,0-.4-.784,2.472,2.472,0,0,0-1.47-.319,2.918,2.918,0,0,0-1.358.262.875.875,0,0,0-.493.824c0,.735.628,1.1,1.878,1.1a2.753,2.753,0,0,0,1.379-.278A.884.884,0,0,0,1129.538,105.528Z" transform="translate(-1125.084 -97.106)"/><path class="a" d="M1129.458,93.211h.78v3.51h-.714l-3.6-2.431v2.26h-.717V93.279h.717l3.53,2.406Z" transform="translate(-1125.132 -93.211)"/></g><path class="a" d="M1085.313,93.659l-2.039,3.488h17.97s2.633.464.874,2.824h0L1083.274,124v2.265l21.574-27.507.2-.255a1.2,1.2,0,0,0,.167-.682v-1.2s0-2.648-3.35-2.962c-.127-.016-.515,0-.515,0Z" transform="translate(-1083.274 -93.378)"/><path class="a" d="M1103.175,141.073l2.038-3.494h-17.969s-2.63-.462-.874-2.825h0l18.843-24.024v-2.263l-21.574,27.507-.2.253a1.2,1.2,0,0,0-.166.681v1.2s0,2.648,3.35,2.967c.13.011.519,0,.519,0Z" transform="translate(-1083.274 -98.988)"/></svg>