<svg xmlns="http://www.w3.org/2000/svg" xmlns:xlink="http://www.w3.org/1999/xlink" width="91" height="93" viewBox="0 0 91 93"><defs><style>.a{fill:#e5ebec;}.b{fill:rgba(41,45,46,0.6);stroke:#e5ebec;}.c{filter:url(#a);}</style><filter id="a" x="0" y="0" width="91" height="93" filterUnits="userSpaceOnUse"><feOffset dy="16" input="SourceAlpha"/><feGaussianBlur stdDeviation="5" result="b"/><feFlood flood-opacity="0.102"/><feComposite operator="in" in2="b"/><feComposite in="SourceGraphic"/></filter></defs><g transform="translate(-1132 -161)"><g class="c" transform="matrix(1, 0, 0, 1, 1132, 161)"><rect class="a" width="61" height="62" transform="translate(15)"/></g><g transform="translate(1169 200.809) rotate(-90)"><g transform="translate(0 0)"><g transform="translate(0 0)"><path class="b" d="M16.4,9.4,9.4,16.394a1.412,1.412,0,1,1-2-2L13.4,8.4,7.406,2.411a1.412,1.412,0,0,1,2-2L16.4,7.406A1.411,1.411,0,0,1,16.4,9.4Zm-8.407.423L2.437,15.676a1.377,1.377,0,0,1-2.019,0,1.562,1.562,0,0,1,0-2.127L4.96,8.761.418,3.974a1.562,1.562,0,0,1,0-2.127,1.377,1.377,0,0,1,2.019,0L7.988,7.7A1.562,1.562,0,0,1,7.988,9.825Z" transform="translate(0 0)"/></g></g></g></g></svg>