<svg xmlns="http://www.w3.org/2000/svg" width="430.012" height="819.603" viewBox="0 0 430.012 819.603"><defs><style>.a{opacity:0.08;}.b{fill:#fff;}</style></defs><g class="a" transform="translate(-1083.274 -93.485)"><path class="b" d="M1123.231,93.787l-39.957,68.367H1435.5s51.6,9.1,17.127,55.349h0L1083.274,688.438v44.389l422.859-539.155,3.871-4.993s3.282-4.4,3.282-13.371V151.84s0-51.9-65.668-58.052c-2.488-.305-10.1,0-10.1,0Z" transform="translate(0 -0.167)"/><path class="b" d="M1473.334,747.555l39.952-68.489h-352.2s-51.552-9.06-17.121-55.362h0l369.325-470.873V108.467L1090.424,647.623l-3.9,4.956s-3.253,4.348-3.253,13.347v23.467s0,51.9,65.653,58.162c2.546.219,10.169,0,10.169,0Z" transform="translate(0 165.436)"/></g></svg>