<svg xmlns="http://www.w3.org/2000/svg" width="40.118" height="54.5" viewBox="0 0 40.118 54.5"><defs><style>.a{fill:#4a4644;}</style></defs><g transform="translate(-1083.274 -93.211)"><g transform="translate(1116.72 93.211)"><path class="a" d="M1130.1,160.106l-.242-1.067c.643-.129.963-.625.963-1.482a1.457,1.457,0,0,0-.245-.9.76.76,0,0,0-.615-.316.909.909,0,0,0-.49.143,1.017,1.017,0,0,0-.353.613l-.323,1.171a2.75,2.75,0,0,1-.378.887,1.5,1.5,0,0,1-.6.462,2.013,2.013,0,0,1-.818.17,1.76,1.76,0,0,1-1.393-.61,2.313,2.313,0,0,1-.522-1.562,2.7,2.7,0,0,1,.367-1.406,1.619,1.619,0,0,1,1.034-.793l.273,1.051a1.056,1.056,0,0,0-.736,1.126,1.189,1.189,0,0,0,.228.786.731.731,0,0,0,.58.271c.369,0,.633-.282.779-.851l.277-1.038a2.1,2.1,0,0,1,.739-1.269,1.922,1.922,0,0,1,1.084-.323,1.82,1.82,0,0,1,1.5.678,2.729,2.729,0,0,1,.546,1.76,3.1,3.1,0,0,1-.4,1.593A1.952,1.952,0,0,1,1130.1,160.106Z" transform="translate(-1125.084 -105.606)"/><path class="a" d="M1131.683,146.947v1.187h-5.475v1.626h-1v-4.439h1v1.626Z" transform="translate(-1125.109 -103.635)"/><path class="a" d="M1131.683,134.557v1.163l-2.659.95v1.551h2.659v1.1h-6.472V136.67a2.19,2.19,0,0,1,.527-1.626,1.869,1.869,0,0,1,1.368-.521,1.71,1.71,0,0,1,1.716,1.1Zm-3.6,3.665V136.85a1.3,1.3,0,0,0-.262-.886.939.939,0,0,0-.733-.292.893.893,0,0,0-.69.285,1.142,1.142,0,0,0-.266.8v1.462Z" transform="translate(-1125.109 -101.475)"/><path class="a" d="M1131.683,123.191v1.179l-1.543.49v2.352l1.543.482v.94l-6.472-2.032v-1.356Zm-2.475,1.965-2.89.891,2.89.891Z" transform="translate(-1125.109 -99.208)"/><path class="a" d="M1131.683,115.86v1.179h-5.475v1.631h-1V114.23h1v1.63Z" transform="translate(-1125.109 -97.416)"/><path class="a" d="M1131.756,106.118a2.2,2.2,0,0,1-.962,1.9,4.081,4.081,0,0,1-2.392.678,3.809,3.809,0,0,1-2.366-.72,2.275,2.275,0,0,1-.953-1.905,2.2,2.2,0,0,1,.953-1.884,3.9,3.9,0,0,1,2.376-.692,3.831,3.831,0,0,1,2.425.717A2.305,2.305,0,0,1,1131.756,106.118Zm-.938-.006a1.239,1.239,0,0,0-.521-1.01,3.182,3.182,0,0,0-1.893-.411,3.756,3.756,0,0,0-1.749.338,1.127,1.127,0,0,0-.635,1.061c0,.946.808,1.414,2.419,1.414a3.544,3.544,0,0,0,1.776-.358A1.138,1.138,0,0,0,1130.819,106.113Z" transform="translate(-1125.084 -95.269)"/><path class="a" d="M1130.68,93.211h1V97.73h-.92l-4.63-3.129v2.91h-.923V93.3h.923l4.545,3.1Z" transform="translate(-1125.109 -93.211)"/></g><path class="a" d="M1085.9,93.661l-2.625,4.491h23.137s3.39.6,1.125,3.636h0l-24.262,30.935v2.916l27.777-35.416.254-.328a1.544,1.544,0,0,0,.216-.878V97.474s0-3.409-4.313-3.813c-.164-.02-.663,0-.663,0Z" transform="translate(0 -0.088)"/><path class="a" d="M1108.9,150.448l2.624-4.5h-23.136s-3.386-.6-1.125-3.637h0l24.26-30.931v-2.914l-27.777,35.416-.256.326a1.538,1.538,0,0,0-.214.877v1.542s0,3.409,4.313,3.821c.167.014.668,0,.668,0Z" transform="translate(0 -3.052)"/></g></svg>