<svg xmlns="http://www.w3.org/2000/svg" width="23.582" height="20.98" viewBox="0 0 23.582 20.98"><defs><style>.a{fill:#f8f8f8;}</style></defs><g transform="translate(-401.418 -2526.51)"><path class="a" d="M11.791,20.98a1.383,1.383,0,0,1-.912-.343C9.927,19.8,9.008,19.022,8.2,18.331l0,0a49.868,49.868,0,0,1-5.855-5.5A8.777,8.777,0,0,1,0,7.087,7.37,7.37,0,0,1,1.871,2.053,6.341,6.341,0,0,1,6.588,0a5.932,5.932,0,0,1,3.705,1.279,7.581,7.581,0,0,1,1.5,1.564,7.581,7.581,0,0,1,1.5-1.564A5.932,5.932,0,0,1,16.994,0a6.341,6.341,0,0,1,4.717,2.053,7.37,7.37,0,0,1,1.871,5.034,8.776,8.776,0,0,1-2.339,5.745,49.864,49.864,0,0,1-5.854,5.5c-.812.692-1.732,1.476-2.686,2.311a1.384,1.384,0,0,1-.911.342Zm-5.2-19.6a4.975,4.975,0,0,0-3.7,1.608,6,6,0,0,0-1.5,4.1A7.385,7.385,0,0,0,3.4,11.951,49.074,49.074,0,0,0,9.09,17.276l0,0c.813.693,1.735,1.479,2.7,2.318.965-.841,1.889-1.628,2.7-2.322a49.086,49.086,0,0,0,5.687-5.325A7.386,7.386,0,0,0,22.2,7.087a6,6,0,0,0-1.5-4.1,4.975,4.975,0,0,0-3.7-1.608,4.581,4.581,0,0,0-2.86.99A6.7,6.7,0,0,0,12.54,4.216a.872.872,0,0,1-1.5,0A6.7,6.7,0,0,0,9.448,2.372a4.581,4.581,0,0,0-2.86-.99Zm0,0" transform="translate(401.418 2526.51)"/><path class="a" d="M8157.293,2533.453l-.7.418v1.567l.815.5s-2.507-.978,0,1.9c.065.075.683.928.975,1.254,2.443,2.74,9.055,8.357,9.055,8.357l9.651-8.357,1.194-3.154v-3.532l-.7-1.776-1.791-1.776-2.089-1.045h-3.085l-2.586,2.82h-.6l-2.288-2.3-3.185-1.254-2.288,1.254-1.791,1.044-1.293,3.03-.4,3.03" transform="translate(-7754 -0.571)"/></g></svg>