<svg xmlns="http://www.w3.org/2000/svg" width="17.234" height="14.269" viewBox="0 0 17.234 14.269"><defs><style>.a{fill:#fff;}</style></defs><path class="a" d="M12.348,35.514h0a4.843,4.843,0,0,0-3.731,1.723,4.778,4.778,0,0,0-3.731-1.723A4.887,4.887,0,0,0,0,40.4c0,4.625,8.072,9.141,8.4,9.315a.393.393,0,0,0,.436,0c.327-.175,8.4-4.625,8.4-9.315A4.887,4.887,0,0,0,12.348,35.514ZM8.617,48.844C7.352,48.1.873,44.153.873,40.4a4.014,4.014,0,0,1,4.014-4.014A3.927,3.927,0,0,1,8.246,38.2a.458.458,0,0,0,.742,0,4.014,4.014,0,0,1,7.374,2.2C16.362,44.2,9.883,48.124,8.617,48.844Z" transform="translate(0 -35.514)"/></svg>