<svg xmlns="http://www.w3.org/2000/svg" width="15.168" height="15.168" viewBox="0 0 15.168 15.168"><defs><style>.a{fill:#4a4644;}</style></defs><path class="a" d="M7.733,15.17H7.582c-1.189,0-2.288-.027-3.356-.092A4.486,4.486,0,0,1,1.641,14.1,4.151,4.151,0,0,1,.246,11.847,9.978,9.978,0,0,1,.017,9.464C.009,8.91,0,8.254,0,7.587s.009-1.326.017-1.88A9.979,9.979,0,0,1,.246,3.324,4.151,4.151,0,0,1,1.641,1.073,4.486,4.486,0,0,1,4.227.094C5.295.029,6.394,0,7.585,0s2.288.027,3.356.092a4.486,4.486,0,0,1,2.586.979,4.15,4.15,0,0,1,1.395,2.252,9.978,9.978,0,0,1,.229,2.383c.008.554.016,1.21.017,1.877s-.009,1.326-.017,1.88a.593.593,0,1,1-1.185-.016c.008-.55.016-1.2.017-1.864s-.009-1.31-.017-1.861a9.077,9.077,0,0,0-.192-2.106,2.992,2.992,0,0,0-1-1.626,3.264,3.264,0,0,0-1.909-.714c-1.043-.063-2.117-.093-3.284-.09s-2.244.027-3.287.09a3.265,3.265,0,0,0-1.909.714,2.992,2.992,0,0,0-1,1.626A9.077,9.077,0,0,0,1.2,5.723c-.008.55-.015,1.2-.017,1.864S1.195,8.9,1.2,9.448a9.077,9.077,0,0,0,.192,2.106,2.992,2.992,0,0,0,1,1.626,3.264,3.264,0,0,0,1.909.714c1.043.063,2.118.093,3.284.09s2.243-.027,3.287-.09a3.264,3.264,0,0,0,1.909-.714,2.847,2.847,0,0,0,.813-1.09.593.593,0,0,1,1.087.471A4.019,4.019,0,0,1,13.527,14.1a4.485,4.485,0,0,1-2.586.979C9.918,15.139,8.867,15.17,7.733,15.17Zm3.524-7.584a3.7,3.7,0,1,0-3.7,3.7A3.707,3.707,0,0,0,11.257,7.585Zm-1.185,0A2.518,2.518,0,1,1,7.554,5.067,2.521,2.521,0,0,1,10.072,7.585Zm1.6-4.888a.889.889,0,1,0,.889.889A.889.889,0,0,0,11.672,2.7Zm0,0" transform="translate(0 -0.001)"/></svg>