<svg xmlns="http://www.w3.org/2000/svg" width="15.168" height="15.168" viewBox="0 0 15.168 15.168"><defs><style>.a{fill:#4a4644;}</style></defs><path class="a" d="M4.148,12.531H3.259a.592.592,0,0,1-.593-.593V6.429a.592.592,0,0,1,.593-.593h.889a.592.592,0,0,1,.593.593v5.51A.592.592,0,0,1,4.148,12.531Zm.8-8.828A1.215,1.215,0,1,0,3.733,4.918,1.215,1.215,0,0,0,4.947,3.7ZM12.5,11.939V8.848c0-1.8-.38-3.13-2.479-3.13A2.152,2.152,0,0,0,8.06,6.747h0V6.429a.592.592,0,0,0-.593-.593h-.83a.592.592,0,0,0-.593.593v5.51a.592.592,0,0,0,.593.593h.83a.592.592,0,0,0,.593-.593V9.207c0-.871.222-1.714,1.3-1.714s1.1,1,1.1,1.769v2.676a.592.592,0,0,0,.593.593h.859A.592.592,0,0,0,12.5,11.939Zm2.666.859a.593.593,0,0,0-1.185,0A1.186,1.186,0,0,1,12.8,13.983H2.37A1.186,1.186,0,0,1,1.185,12.8V2.37A1.186,1.186,0,0,1,2.37,1.185H12.8A1.186,1.186,0,0,1,13.983,2.37V9.806a.593.593,0,1,0,1.185,0V2.37A2.373,2.373,0,0,0,12.8,0H2.37A2.373,2.373,0,0,0,0,2.37V12.8a2.373,2.373,0,0,0,2.37,2.37H12.8A2.373,2.373,0,0,0,15.168,12.8Zm0,0"/></svg>