<svg xmlns="http://www.w3.org/2000/svg" width="16.466" height="11.892" viewBox="0 0 16.466 11.892"><defs><style>.a{fill:#e5ebec;}</style></defs><path class="a" d="M15.78,124.04H.686a.686.686,0,1,1,0-1.372H15.78a.686.686,0,1,1,0,1.372Zm0,0" transform="translate(0 -117.408)"/><path class="a" d="M15.78,1.372H.686A.686.686,0,0,1,.686,0H15.78a.686.686,0,1,1,0,1.372Zm0,0" transform="translate(0 0)"/><path class="a" d="M15.78,246.7H.686a.686.686,0,1,1,0-1.372H15.78a.686.686,0,1,1,0,1.372Zm0,0" transform="translate(0 -234.812)"/></svg>